<svg width="12" height="11" viewBox="0 0 12 11" fill="none" xmlns="http://www.w3.org/2000/svg">
<path d="M10.1836 5.24004L5.75625 1.71768C5.72227 1.69082 5.67891 1.67578 5.6332 1.67578H4.59609C4.50938 1.67578 4.46953 1.77461 4.53516 1.82617L8.63906 5.0918H1.78125C1.72969 5.0918 1.6875 5.13047 1.6875 5.17773V5.82227C1.6875 5.86953 1.72969 5.9082 1.78125 5.9082H8.63789L4.53398 9.17383C4.46836 9.22646 4.5082 9.32422 4.59492 9.32422H5.66719C5.68945 9.32422 5.71172 9.3167 5.72812 9.30273L10.1836 5.75996C10.2242 5.72762 10.2567 5.68768 10.279 5.64284C10.3013 5.59799 10.3128 5.54928 10.3128 5.5C10.3128 5.45072 10.3013 5.40201 10.279 5.35716C10.2567 5.31232 10.2242 5.27238 10.1836 5.24004Z" fill="#2E62DC"/>
</svg>
