<svg width="20" height="19" viewBox="0 0 20 19" fill="none" xmlns="http://www.w3.org/2000/svg">
<path d="M18.75 0H0.78125C0.349121 0 0 0.338722 0 0.757978V18.1915C0 18.6107 0.349121 18.9495 0.78125 18.9495H18.75C19.1821 18.9495 19.5312 18.6107 19.5312 18.1915V0.757978C19.5312 0.338722 19.1821 0 18.75 0ZM16.4941 5.53087H14.9341C13.7109 5.53087 13.4741 6.09462 13.4741 6.92366V8.74991H16.394L16.0132 11.6089H13.4741V18.9495H10.4297V11.6113H7.8833V8.74991H10.4297V6.64179C10.4297 4.19494 11.9702 2.86137 14.2212 2.86137C15.3003 2.86137 16.2256 2.93954 16.4966 2.97507V5.53087H16.4941Z" fill="#FFFAFA"/>
</svg>
