<svg width="100" height="24" viewBox="0 0 100 24" fill="none" xmlns="http://www.w3.org/2000/svg">
<path d="M0 0H18.75V23.9377H0V0ZM20.3125 0H39.0625V23.9377H20.3125V0ZM40.625 0H59.375V23.9377H40.625V0ZM60.9375 0H79.6875V23.9377H60.9375V0ZM81.25 0H100V23.9377H81.25V0Z" fill="#2E62DC"/>
<path d="M9.375 16.1333L12.2266 15.2107L13.418 19.8987L9.375 16.1333ZM15.9375 10.0738H10.918L9.375 4.03931L7.83203 10.0738H2.8125L6.875 13.8143L5.33203 19.8488L9.39453 16.1084L11.8945 13.8143L15.9375 10.0738ZM29.6875 16.1333L32.5391 15.2107L33.7305 19.8987L29.6875 16.1333ZM36.25 10.0738H31.2305L29.6875 4.03931L28.1445 10.0738H23.125L27.1875 13.8143L25.6445 19.8488L29.707 16.1084L32.207 13.8143L36.25 10.0738ZM50 16.1333L52.8516 15.2107L54.043 19.8987L50 16.1333ZM56.5625 10.0738H51.543L50 4.03931L48.457 10.0738H43.4375L47.5 13.8143L45.957 19.8488L50.0195 16.1084L52.5195 13.8143L56.5625 10.0738ZM70.3125 16.1333L73.1641 15.2107L74.3555 19.8987L70.3125 16.1333ZM76.875 10.0738H71.8555L70.3125 4.03931L68.7695 10.0738H63.75L67.8125 13.8143L66.2695 19.8488L70.332 16.1084L72.832 13.8143L76.875 10.0738ZM90.625 16.1333L93.4766 15.2107L94.668 19.8987L90.625 16.1333ZM97.1875 10.0738H92.168L90.625 4.03931L89.082 10.0738H84.0625L88.125 13.8143L86.582 19.8488L90.6445 16.1084L93.1445 13.8143L97.1875 10.0738Z" fill="white"/>
</svg>
