<svg width="95" height="95" viewBox="0 0 95 95" fill="none" xmlns="http://www.w3.org/2000/svg">
<g clip-path="url(#clip0_13_149)">
<path d="M37 12.5C37 11.837 37.2634 11.2011 37.7322 10.7322C38.2011 10.2634 38.837 10 39.5 10H54.5C55.163 10 55.7989 10.2634 56.2678 10.7322C56.7366 11.2011 57 11.837 57 12.5V17.5C57 18.163 56.7366 18.7989 56.2678 19.2678C55.7989 19.7366 55.163 20 54.5 20H42V25C48.6304 25 54.9893 27.6339 59.6777 32.3223C64.3661 37.0107 67 43.3696 67 50V55H72C74.6522 55 77.1957 56.0536 79.0711 57.9289C80.9464 59.8043 82 62.3478 82 65V85C82 86.3261 81.4732 87.5979 80.5355 88.5355C79.5979 89.4732 78.3261 90 77 90H7C5.67392 90 4.40215 89.4732 3.46447 88.5355C2.52678 87.5979 2 86.3261 2 85V65C2 62.3478 3.05357 59.8043 4.92893 57.9289C6.8043 56.0536 9.34784 55 12 55H17V50C17.0007 44.2372 18.9915 38.6515 22.6357 34.1873C26.28 29.7231 31.354 26.6544 37 25.5V12.5ZM72 60H64.5C63.837 60 63.2011 59.7366 62.7322 59.2678C62.2634 58.7989 62 58.163 62 57.5V50C62 44.6957 59.8929 39.6086 56.1421 35.8579C52.3914 32.1071 47.3043 30 42 30C36.6957 30 31.6086 32.1071 27.8579 35.8579C24.1071 39.6086 22 44.6957 22 50V57.5C22 58.163 21.7366 58.7989 21.2678 59.2678C20.7989 59.7366 20.163 60 19.5 60H12C10.6739 60 9.40215 60.5268 8.46447 61.4645C7.52678 62.4021 7 63.6739 7 65V85H32V75C32 73.6739 32.5268 72.4021 33.4645 71.4645C34.4021 70.5268 35.6739 70 37 70H47C48.3261 70 49.5979 70.5268 50.5355 71.4645C51.4732 72.4021 52 73.6739 52 75V85H77V65C77 63.6739 76.4732 62.4021 75.5355 61.4645C74.5979 60.5268 73.3261 60 72 60ZM22 67.5C22 66.837 21.7366 66.2011 21.2678 65.7322C20.7989 65.2634 20.163 65 19.5 65C18.837 65 18.2011 65.2634 17.7322 65.7322C17.2634 66.2011 17 66.837 17 67.5V77.5C17 78.163 17.2634 78.7989 17.7322 79.2678C18.2011 79.7366 18.837 80 19.5 80C20.163 80 20.7989 79.7366 21.2678 79.2678C21.7366 78.7989 22 78.163 22 77.5V67.5ZM67 67.5C67 66.837 66.7366 66.2011 66.2678 65.7322C65.7989 65.2634 65.163 65 64.5 65C63.837 65 63.2011 65.2634 62.7322 65.7322C62.2634 66.2011 62 66.837 62 67.5V77.5C62 78.163 62.2634 78.7989 62.7322 79.2678C63.2011 79.7366 63.837 80 64.5 80C65.163 80 65.7989 79.7366 66.2678 79.2678C66.7366 78.7989 67 78.163 67 77.5V67.5ZM34.5 45C33.837 45 33.2011 45.2634 32.7322 45.7322C32.2634 46.2011 32 46.837 32 47.5V57.5C32 58.163 32.2634 58.7989 32.7322 59.2678C33.2011 59.7366 33.837 60 34.5 60C35.163 60 35.7989 59.7366 36.2678 59.2678C36.7366 58.7989 37 58.163 37 57.5V47.5C37 46.837 36.7366 46.2011 36.2678 45.7322C35.7989 45.2634 35.163 45 34.5 45ZM52 47.5C52 46.837 51.7366 46.2011 51.2678 45.7322C50.7989 45.2634 50.163 45 49.5 45C48.837 45 48.2011 45.2634 47.7322 45.7322C47.2634 46.2011 47 46.837 47 47.5V57.5C47 58.163 47.2634 58.7989 47.7322 59.2678C48.2011 59.7366 48.837 60 49.5 60C50.163 60 50.7989 59.7366 51.2678 59.2678C51.7366 58.7989 52 58.163 52 57.5V47.5ZM37 85H47V75H37V85Z" fill="#2E62DC"/>
</g>
<defs>
<clipPath id="clip0_13_149">
<rect width="95" height="95" fill="white"/>
</clipPath>
</defs>
</svg>
