<svg width="25" height="25" viewBox="0 0 25 25" fill="none" xmlns="http://www.w3.org/2000/svg">
<path fill-rule="evenodd" clip-rule="evenodd" d="M1.11038 17.2239C1.05413 16.002 1.04163 15.6124 1.04163 12.4999C1.04163 9.38742 1.05517 8.99784 1.11038 7.777C1.16558 6.55617 1.36038 5.72284 1.64267 4.99367C1.93121 4.23013 2.38225 3.53742 2.96558 2.9645C3.53746 2.38117 4.22913 1.93117 4.99371 1.64367C5.72288 1.36033 6.55621 1.16659 7.77496 1.11034C8.99892 1.05409 9.3885 1.04159 12.5 1.04159C15.6125 1.04159 16.002 1.05513 17.2239 1.11034C18.4427 1.16554 19.276 1.36033 20.0052 1.64367C20.7698 1.93118 21.4627 2.38192 22.0354 2.9645C22.6187 3.53742 23.0687 4.23013 23.3562 4.99367C23.6395 5.72284 23.8333 6.55617 23.8895 7.77492C23.9458 8.99784 23.9583 9.38742 23.9583 12.4999C23.9583 15.6124 23.9447 16.002 23.8895 17.2239C23.8343 18.4426 23.6395 19.276 23.3562 20.0051C23.0687 20.7698 22.6179 21.4626 22.0354 22.0353C21.4632 22.6183 20.7707 23.0694 20.0062 23.3572C19.277 23.6395 18.4437 23.8333 17.225 23.8895C16.001 23.9458 15.6114 23.9583 12.5 23.9583C9.38746 23.9583 8.99788 23.9447 7.77704 23.8895C6.55621 23.8343 5.72288 23.6395 4.99371 23.3572C4.22921 23.069 3.53674 22.6175 2.96454 22.0343C2.38173 21.4624 1.93063 20.7703 1.64267 20.0062C1.36038 19.277 1.16663 18.4437 1.11038 17.2249V17.2239ZM3.17288 7.86971C3.11767 9.07804 3.10621 9.44054 3.10621 12.4999C3.10621 15.5593 3.11767 15.9218 3.17288 17.1301C3.22392 18.2478 3.41038 18.8541 3.56767 19.2583C3.776 19.7926 4.02288 20.1749 4.42392 20.576C4.79376 20.9561 5.244 21.2487 5.74163 21.4322C6.14579 21.5895 6.75204 21.776 7.86975 21.827C9.07808 21.8822 9.44058 21.8937 12.5 21.8937C15.5593 21.8937 15.9218 21.8822 17.1302 21.827C18.2479 21.776 18.8541 21.5895 19.2583 21.4322C19.7552 21.2489 20.2062 20.9562 20.576 20.576C20.9562 20.2062 21.2489 19.7551 21.4323 19.2583C21.5895 18.8541 21.776 18.2478 21.827 17.1301C21.8822 15.9218 21.8937 15.5603 21.8937 12.4999C21.8937 9.4395 21.8822 9.07804 21.827 7.86971C21.776 6.752 21.5895 6.14575 21.4323 5.74158C21.2239 5.20721 20.977 4.82492 20.576 4.42388C20.2062 4.04367 19.7552 3.75096 19.2583 3.56763C18.8541 3.41034 18.2479 3.22388 17.1302 3.17284C15.9218 3.11763 15.5593 3.10617 12.5 3.10617C9.44058 3.10617 9.07808 3.11763 7.86975 3.17284C6.75204 3.22388 6.14579 3.41034 5.74163 3.56763C5.20725 3.77596 4.82496 4.02284 4.42392 4.42388C4.04378 4.79375 3.75122 5.24398 3.56767 5.74158C3.41038 6.14575 3.22392 6.752 3.17288 7.86971ZM16.0323 13.9635C16.3725 13.1461 16.4184 12.236 16.1622 11.3885C15.9059 10.5411 15.3634 9.80889 14.6273 9.31699C13.8912 8.8251 13.0071 8.60403 12.1261 8.69154C11.2451 8.77905 10.4218 9.16971 9.79683 9.79679C9.39733 10.1965 9.09143 10.6799 8.90115 11.2121C8.71088 11.7442 8.64096 12.312 8.69643 12.8744C8.75191 13.4368 8.93139 13.98 9.22197 14.4647C9.51255 14.9494 9.90698 15.3637 10.3769 15.6777C10.8468 15.9917 11.3805 16.1976 11.9395 16.2806C12.4985 16.3636 13.069 16.3216 13.6099 16.1577C14.1507 15.9937 14.6485 15.7119 15.0674 15.3325C15.4862 14.9531 15.8158 14.4855 16.0323 13.9635ZM8.33538 16.6645C7.78847 16.1176 7.35465 15.4683 7.05867 14.7538C6.76269 14.0392 6.61035 13.2734 6.61035 12.4999C6.61035 11.7265 6.76269 10.9606 7.05867 10.2461C7.35465 9.5315 7.78847 8.88224 8.33538 8.33534C8.88228 7.78843 9.53154 7.35461 10.2461 7.05863C10.9607 6.76265 11.7265 6.61031 12.5 6.61031C13.2734 6.61031 14.0393 6.76265 14.7538 7.05863C15.4684 7.35461 16.1176 7.78843 16.6645 8.33534C17.7691 9.43985 18.3896 10.9379 18.3896 12.4999C18.3896 14.0619 17.7691 15.56 16.6645 16.6645C15.56 17.769 14.062 18.3895 12.5 18.3895C10.9379 18.3895 9.43989 17.769 8.33538 16.6645ZM7.48746 5.30408C7.35961 5.16856 7.20588 5.06006 7.03535 4.98502C6.86482 4.90998 6.68097 4.86991 6.49468 4.86719C6.30839 4.86448 6.12345 4.89917 5.9508 4.96921C5.77816 5.03925 5.62132 5.14322 5.48958 5.27496C5.35784 5.4067 5.25387 5.56354 5.18383 5.73618C5.11379 5.90882 5.0791 6.09377 5.08182 6.28006C5.08453 6.46634 5.1246 6.6502 5.19964 6.82072C5.27469 6.99125 5.38318 7.14499 5.51871 7.27284C5.78228 7.52147 6.13238 7.65759 6.49468 7.65231C6.85698 7.64703 7.20296 7.50076 7.45917 7.24455C7.71538 6.98833 7.86166 6.64236 7.86694 6.28006C7.87222 5.91776 7.73609 5.56766 7.48746 5.30408Z" fill="#FFFAFA"/>
</svg>
