<svg width="90" height="90" viewBox="0 0 90 90" fill="none" xmlns="http://www.w3.org/2000/svg">
<path d="M78.8789 45.0001L73.6332 37.3274L74.3397 28.0605L65.9614 24.0385L61.9379 15.6587L52.671 16.3652L44.9992 11.1201L37.3275 16.3652L28.0597 15.6587L24.0377 24.0385L15.6579 28.0605L16.3635 37.3274L11.1202 45.0001L16.3644 52.6718L15.6588 61.9387L24.0386 65.9613L28.0603 74.3405L37.3272 73.6349L44.9992 78.8797L52.671 73.6346L61.9379 74.3402L65.9614 65.961L74.3406 61.9384L73.6341 52.6715L78.8789 45.0001ZM36.396 53.9222C36.396 55.6325 35.0094 57.0191 33.2991 57.0191C31.5898 57.0191 30.2032 55.6325 30.2032 53.9222V40.7212C30.2032 39.0104 31.5898 37.6238 33.2991 37.6238C35.0094 37.6238 36.396 39.0104 36.396 40.7212V53.9222ZM58.2395 53.7011C58.2395 56.1194 56.8265 56.9861 54.4068 56.9861H43.271C40.8527 56.9861 38.8904 55.0244 38.8904 52.6061V41.6515C38.8904 41.6515 38.6742 39.8299 40.6901 38.1182C41.8307 37.1486 43.5248 35.3006 44.7065 33.0567C47.0578 28.6005 48.4639 27.3036 49.5367 27.6522C53.5002 28.9368 51.5169 34.8152 50.2384 37.2701H53.8581C56.2788 37.2701 58.2395 39.2318 58.2395 41.6515C58.2395 41.6518 58.2395 53.7011 58.2395 53.7011Z" fill="#2E62DC"/>
<path d="M44.9992 0C20.1474 0 0.000595093 20.1483 0.000595093 44.9993C0.000595093 69.8502 20.1474 90 44.9992 90C69.8511 90 89.9994 69.8511 89.9994 44.9993C89.9994 20.1474 69.8511 0 44.9992 0ZM69.2658 69.4611L64.5718 79.2392L53.7582 78.4145L44.8057 84.5347L35.8533 78.4145L25.0397 79.2392L20.3463 69.4611L10.5688 64.7686L11.3929 53.955L5.27031 45.0008L11.3914 36.0483L10.5673 25.2347L20.3448 20.5413L25.0376 10.7638L35.8512 11.5879L44.8036 5.46681L53.7561 11.5879L64.5697 10.7638L69.2637 20.5413L79.0412 25.2347L78.2156 36.0483L84.3367 45.0016L78.2156 53.955L79.0412 64.7686L69.2658 69.4611Z" fill="#2E62DC"/>
</svg>
