<svg width="90" height="90" viewBox="0 0 90 90" fill="none" xmlns="http://www.w3.org/2000/svg">
<path d="M15.4266 75.6085C16.7795 75.6085 17.8763 74.8605 17.8763 73.9378C17.8763 73.0152 16.7795 72.2672 15.4266 72.2672C14.0737 72.2672 12.9769 73.0152 12.9769 73.9378C12.9769 74.8605 14.0737 75.6085 15.4266 75.6085Z" fill="#2E62DC"/>
<path d="M85.1576 65.6283L84.2379 65.0883C84.1676 65.0475 77.1406 60.878 75.394 55.8183L75.0045 54.6975L74.2845 55.6383C74.262 55.6678 73.2635 56.9025 70.4693 58.3509C68.4007 46.5764 61.3638 32.5195 52.1163 26.5261C54.7601 26.7398 57.4123 26.5205 59.9716 25.5895C61.5129 25.0298 60.8477 22.5183 59.2924 23.0864C57.1943 23.85 55.092 24.0581 52.9938 23.9513C58.1449 19.2305 62.1893 11.9953 62.1893 6.705C62.1893 5.43375 62.1893 3.06703 60.3049 3.06703C59.5484 3.06703 58.9366 3.53953 58.0915 4.19203C56.7949 5.19187 54.8374 6.705 51.9617 6.705C50.8662 6.705 48.8609 5.54906 47.2493 4.62094C45.3017 3.50016 44.0571 2.8125 43.0109 2.8125C41.2784 2.8125 38.7317 4.21312 36.4845 5.44922C35.5704 5.95125 34.3202 6.64031 34.0615 6.70641C30.8046 6.70641 28.9132 5.20453 27.6588 4.21031C26.9276 3.62812 26.3974 3.20625 25.6901 3.20625C23.8367 3.20625 23.8367 5.42953 23.8367 8.00437C23.8367 12.9741 27.6223 19.5342 32.5793 23.9428C29.456 24.1664 26.3763 25.11 24.2121 27.2067C23.0168 28.3627 24.8281 30.1964 26.0192 29.0433C27.8177 27.2995 30.176 26.5528 32.6988 26.408C32.7706 26.6653 32.8577 26.9184 32.9646 27.1673C22.3952 34.7625 14.8873 52.7977 14.8873 64.973C14.8873 66.1739 14.9801 67.2609 15.1235 68.2847C12.3982 67.0739 11.404 66.0122 11.3843 65.9883L10.6587 65.1516L10.3015 66.2063C8.72228 70.8525 1.85697 74.8828 1.78806 74.9236L0.782593 75.5072L1.80494 76.0598C2.16353 76.2539 2.51931 76.4241 2.87791 76.6083L2.23103 77.0569L2.57275 81.3319L29.366 87.1875L39.5248 80.6892C40.5499 80.6948 41.5877 80.6977 42.6438 80.6977L54.5182 87.1875L81.3621 78.75V74.2373L80.652 73.8112C81.0063 73.5863 81.3607 73.357 81.7137 73.1208L82.6545 72.4922L82.4477 72.3909L83.6445 72.0633L83.847 67.372L83.1551 66.8812C83.5235 66.6605 83.8906 66.4355 84.259 66.202L85.1576 65.6283ZM26.3946 8.00437C26.3946 7.38 26.4031 6.89344 26.4157 6.51516C26.6309 6.68391 26.8812 6.86812 27.1484 7.05797C27.9682 9.02109 29.5193 11.8477 32.149 13.628C35.344 15.7936 34.9193 13.3045 36.6237 11.032C38.3281 8.76094 39.4812 7.57125 42.3359 13.4128C43.5804 15.9595 45.6546 8.8425 47.6262 7.80328C48.1479 8.08734 48.6682 8.35172 49.1787 8.57672C52.714 14.3255 54.3523 12.5325 57.4924 7.75406C58.3559 7.24781 59.0646 6.705 59.6285 6.27047C59.6313 6.40125 59.6341 6.54609 59.6341 6.70781C59.6341 11.2219 55.9456 17.6962 51.4287 21.9192C51.2154 21.3772 50.91 20.8763 50.5259 20.4384C48.702 18.3727 45.8515 20.6634 44.5001 22.1667C42.1024 21.3961 38.1959 19.2741 35.6506 20.4891C35.0166 20.7831 34.4344 21.1777 33.9265 21.6577C29.764 17.8636 26.3946 12.3862 26.3946 8.00437ZM49.1815 23.4366C48.551 23.3029 47.9241 23.1528 47.3013 22.9866C48.086 22.3102 48.806 22.0739 49.1084 23.0794C49.1407 23.1891 49.1604 23.3142 49.1815 23.4366ZM38.494 24.3098C38.0285 24.2213 37.5504 24.1411 37.0582 24.0778C36.685 23.8439 36.3196 23.5977 35.9627 23.3395C37.2481 22.4775 39.4643 22.9359 41.5821 23.6545C40.5373 23.76 39.5065 23.9878 38.494 24.3098ZM39.1324 28.0223C38.3449 28.2192 37.4871 28.1405 36.746 27.8452C37.047 27.6863 37.3507 27.5484 37.6545 27.4092C38.1467 27.6469 38.6388 27.8452 39.1324 28.0223ZM13.121 79.283C9.76696 78.3116 6.51243 77.0248 3.40103 75.4397C5.30931 74.1853 9.46619 71.152 11.1565 67.507C12.3152 68.4169 14.9899 70.0762 20.1987 71.3503C20.1101 71.4938 20.0018 71.647 19.8977 71.7975C15.4512 70.6331 12.9227 69.1608 12.882 69.1355L12.2688 68.7698L11.9749 69.4266C11.5882 70.2872 10.6812 70.4166 10.1763 70.4166C10.0357 70.4166 9.9415 70.4067 9.92884 70.4053L9.42681 70.3322L9.244 70.8131C8.86994 71.7947 7.33431 73.0772 6.77181 73.4892L5.83244 74.1783L6.90681 74.6184C7.30619 74.7816 7.41447 74.932 7.42009 74.9714C7.43415 75.0684 7.264 75.3244 7.08259 75.472L6.26415 76.1316L7.21619 76.5717C9.16665 77.4717 11.3759 78.217 13.5851 78.8316C13.4093 79.0045 13.2574 79.1522 13.121 79.283ZM24.461 74.0433C26.427 74.3189 28.6052 74.4933 30.9846 74.4933H30.986C31.481 74.4933 31.9831 74.4848 32.4949 74.4694C32.529 74.5755 32.5778 74.6763 32.6398 74.7689C32.7649 74.9587 32.9337 75.1162 33.1474 75.2386L29.5587 78.3056C29.4903 78.3027 29.4218 78.3013 29.3534 78.3014C27.7545 78.3014 26.562 78.8892 25.9896 79.9355C23.8211 79.6589 21.6627 79.3085 19.5181 78.885C21.242 77.3509 22.8916 75.7352 24.461 74.0433ZM8.5015 75.7266C8.64212 75.4608 8.73353 75.1387 8.68431 74.7872C8.63757 74.47 8.48551 74.1778 8.25259 73.9575C8.884 73.4161 9.75447 72.5808 10.2326 71.7159C11.3196 71.7005 12.2168 71.2884 12.7821 70.56C13.7342 71.0578 15.8787 72.0633 19.047 72.9352C17.7518 74.5594 16.0067 76.4016 14.6496 77.7712C12.5346 77.2116 10.4042 76.5366 8.5015 75.7266ZM28.542 81.6455L28.2537 81.6469C27.0429 81.6469 23.0309 81.5484 17.7307 80.4445C17.9163 80.287 18.109 80.1253 18.2876 79.9706C22.5879 80.8692 26.0557 81.2545 26.3159 81.2841L26.8306 81.3389L26.9895 80.8397C27.3368 79.7625 28.6179 79.6036 29.352 79.6036C29.5531 79.6036 29.6867 79.6162 29.7021 79.6177L29.9749 79.6472L36.2088 74.3203L34.5424 74.2655C33.9856 74.2458 33.7507 74.1206 33.6931 74.0348L34.046 73.1109L33.0701 73.1517C32.3585 73.1827 31.6638 73.1981 30.9846 73.1981H30.9832C29.0201 73.1981 27.199 73.0687 25.5157 72.8648L25.9067 72.4036C29.3042 72.8578 33.3724 73.1377 38.2845 73.1025C37.1117 74.7478 34.1867 78.2452 28.542 81.6455ZM42.6382 75.5353V78.1017C41.8381 78.1017 41.059 78.0989 40.2968 78.0933L40.0676 75.2048L38.1635 75.3595C39.446 73.8436 39.9931 72.8325 40.0423 72.7411L40.5584 71.7652L39.4685 71.7848C29.037 71.9761 22.2335 70.733 17.9388 69.352C17.6252 68.0836 17.4438 66.6492 17.4438 64.9744C17.4438 53.5514 24.7437 36.2855 34.4356 29.288C36.1526 30.9487 38.757 31.6758 41.232 30.06C41.7748 29.7056 42.2473 29.2416 42.6902 28.748C42.7957 28.7508 42.904 28.7747 43.0109 28.7747C43.3652 28.7747 43.7252 28.7452 44.0838 28.7002C44.5381 28.8816 44.9824 29.0644 45.3945 29.2458C47.3674 30.1148 49.0521 29.5748 50.2024 28.3767C59.0801 33.7486 66.1929 47.9587 68.0646 59.445C64.0062 61.0678 57.5684 62.6512 47.6881 62.9297C49.6371 61.8159 51.0996 59.9428 50.5737 57.4819C50.021 54.8803 47.847 54.1491 45.5956 54.0295C45.5899 52.8075 45.5899 51.5883 45.5984 50.3663C46.2888 50.6714 46.9512 51.023 47.5531 51.3984C48.6162 52.0664 49.5781 50.3353 48.522 49.6673C47.6063 49.0917 46.6289 48.6204 45.6082 48.2625C45.6223 46.8478 45.6293 45.4359 45.6293 44.0241C45.6307 42.7303 43.7084 42.7303 43.7084 44.0241C43.7084 45.2658 43.6999 46.5061 43.6887 47.745C42.6655 47.5667 41.6207 47.5491 40.5921 47.693C40.4249 46.7622 40.2222 45.838 39.9846 44.9227C39.6668 43.6767 37.8106 44.2041 38.1326 45.4542C38.3688 46.3528 38.5615 47.2472 38.7204 48.1542C38.6388 48.1852 38.5502 48.2006 38.4701 48.2372C35.8657 49.268 34.2767 51.8962 36.1821 54.3473C37.0695 55.4892 38.2296 55.9505 39.4995 56.1037C39.5684 57.7955 39.612 59.4886 39.6612 61.1789C38.8104 60.6263 38.0356 59.9175 37.3338 59.168C36.4648 58.2511 35.1077 59.6672 35.9754 60.5827C37.1552 61.8384 38.3942 62.7877 39.7371 63.3952C39.7976 64.8394 39.8834 66.2878 40.024 67.725C40.1477 69.0005 42.0715 69.0075 41.9463 67.725C41.8278 66.4819 41.7401 65.236 41.6834 63.9886C42.4146 64.1152 43.1824 64.1475 43.9981 64.0702C44.0895 65.4005 44.1963 66.7308 44.3482 68.0611C44.4354 68.8233 45.1638 69.1228 45.701 68.9681L45.5815 71.73C44.7349 71.8059 43.8715 71.8763 42.9715 71.9353L41.8999 72.0056L42.4709 72.9281C42.5285 73.0209 43.1768 74.0461 44.6238 75.5381H42.6382V75.5353ZM77.637 66.2794C75.8693 67.1105 73.6334 67.8727 71.3552 68.5378C69.9546 67.0908 68.1631 65.16 66.8257 63.4472C69.8056 62.5444 71.4734 61.6134 72.2257 61.1114C72.8206 61.6359 73.6081 61.9087 74.5404 61.9073C74.8498 61.9073 75.124 61.8778 75.3349 61.8441C76.0099 62.7188 77.0984 63.7284 77.779 64.3317C77.457 64.6622 77.3009 65.0278 77.3135 65.423C77.3248 65.7605 77.4598 66.0473 77.637 66.2794ZM67.5752 70.9003C67.8621 71.1534 68.1588 71.4122 68.4612 71.6737C62.7602 73.1855 58.5176 73.35 57.5937 73.3655C51.6902 69.7641 48.6302 65.9531 47.4504 64.2375C52.3906 64.1138 56.4743 63.6666 59.8802 63.0506C60.0188 63.2207 60.1589 63.3895 60.3007 63.5569C57.5632 63.9832 54.8041 64.2569 52.0362 64.3767L50.9013 64.4245L51.5257 65.3794C51.5243 65.3808 51.3977 65.617 50.5596 65.7802L49.197 66.0459L55.8963 71.4698L56.2085 71.3855C56.2156 71.3841 56.8062 71.2252 57.5206 71.2252C58.5513 71.2252 59.2559 71.5387 59.6102 72.1519L59.8352 72.54L60.2726 72.4627C62.7221 72.0161 65.1574 71.4951 67.5752 70.9003ZM47.7513 66.7673L46.151 66.6802C46.0765 65.8814 46.002 65.0827 45.9457 64.2839C46.227 64.7508 46.8035 65.6283 47.7513 66.7673ZM45.7713 61.6191C45.6791 59.7261 45.6233 57.8315 45.604 55.9364C45.8346 55.9448 46.0624 55.9659 46.279 55.9969C48.7652 56.3737 49.4149 59.1384 47.4743 60.6937C46.9681 61.0945 46.3845 61.3884 45.7713 61.6191ZM60.4512 71.1141C59.8212 70.3364 58.8185 69.9286 57.522 69.9286C56.9806 69.9286 56.5038 70.0017 56.2029 70.0608L51.9912 66.6478C52.3413 66.4467 52.5776 66.1922 52.707 65.88C52.7388 65.8023 52.7633 65.7218 52.7801 65.6395C56.1185 65.4567 58.931 65.1234 61.309 64.7156C62.4621 66.0023 64.1567 67.777 66.4038 69.84C63.6434 70.4967 61.3413 70.9467 60.4512 71.1141ZM43.6802 55.987C43.707 58.0247 43.7576 60.068 43.8659 62.1042C43.6845 62.1323 43.5059 62.1675 43.3273 62.1858C42.7226 62.2547 42.1488 62.2041 41.6032 62.0663C41.5343 60.0975 41.4893 58.1245 41.4148 56.1544C42.1713 56.1192 42.9377 56.0447 43.6802 55.987ZM41.3177 54.2081C41.2299 52.6629 41.0845 51.1216 40.8818 49.5872C41.8139 49.4591 42.7617 49.5072 43.676 49.7292C43.6659 51.1669 43.6636 52.6045 43.669 54.0422C43.0517 54.0759 42.4652 54.135 41.9492 54.1814C41.7391 54.1978 41.5285 54.2067 41.3177 54.2081ZM39.3884 53.962C39.2688 53.9297 39.1507 53.9044 39.0284 53.8636C38.4657 53.6729 37.9563 53.3514 37.542 52.9256C36.341 51.8048 37.9892 50.7052 39.0284 50.1834C39.1915 51.435 39.304 52.6978 39.3884 53.962ZM54.9092 81.3361C48.8046 78.217 45.5295 74.7506 44.2287 73.1447C45.1638 73.0744 46.0484 72.99 46.9245 72.9014L56.9342 79.3983L78.8857 73.3683C67.5654 80.1914 56.3815 81.2306 54.9092 81.3361ZM73.0385 70.2408C72.8585 70.0608 72.6434 69.847 72.3888 69.5897C74.8863 68.8331 77.3023 67.9556 79.1037 66.9909L80.1992 66.4017L79.0882 65.8364C78.8393 65.7084 78.596 65.4736 78.5918 65.385C78.5946 65.3512 78.6931 65.1712 79.1191 64.9266L79.932 64.4597L79.2092 63.8578C79.1866 63.8395 76.9324 61.9678 76.1407 60.7627L75.8792 60.3689L75.4306 60.4997C75.4263 60.4997 75.041 60.6108 74.5404 60.6108C73.767 60.6122 73.1876 60.3591 72.8163 59.8613L72.4057 59.317L71.891 59.76C71.8643 59.7825 70.271 61.0889 65.9974 62.3236C65.8567 62.1209 65.7212 61.9145 65.591 61.7048C70.7731 60.1341 73.421 58.2328 74.5685 57.1922C76.4107 61.1775 80.7968 64.388 82.7009 65.6466C79.642 67.4976 76.405 69.0367 73.0385 70.2408Z" fill="#2E62DC"/>
<path d="M62.4093 66.2583C61.0073 65.8772 59.4253 66.1374 58.8712 66.8335C58.3214 67.5324 59.016 68.4127 60.4167 68.7966C61.8201 69.1777 63.4007 68.9161 63.9548 68.2186C64.5046 67.5197 63.8128 66.6422 62.4093 66.2583Z" fill="#2E62DC"/>
</svg>
