<svg width="90" height="90" viewBox="0 0 100 100" fill="none" xmlns="http://www.w3.org/2000/svg">
<path d="M22.5 10C20.5109 10 18.6032 10.7902 17.1967 12.1967C15.7902 13.6032 15 15.5109 15 17.5V82.5C15 84.4891 15.7902 86.3968 17.1967 87.8033C18.6032 89.2098 20.5109 90 22.5 90H57.5C59.4891 90 61.3968 89.2098 62.8033 87.8033C64.2098 86.3968 65 84.4891 65 82.5V75C65 74.337 64.7366 73.7011 64.2678 73.2322C63.7989 72.7634 63.163 72.5 62.5 72.5C60.435 72.5 59.115 71.99 58.22 71.32C57.305 70.635 56.61 69.61 56.1 68.205C55.03 65.265 55 61.37 55 57.5C54.9999 57.1711 54.935 56.8455 54.8088 56.5418C54.6827 56.238 54.4979 55.9622 54.265 55.73L52.835 54.295L46.77 48.23C44.435 45.895 43.75 44.33 43.62 43.455C43.52 42.755 43.73 42.285 44.23 41.805C45.3 40.78 46.065 40.085 46.93 39.875C47.445 39.745 48.62 39.655 50.73 41.765L65.73 56.765C66.1988 57.2344 66.8348 57.4984 67.4982 57.4989C67.8267 57.4991 68.152 57.4347 68.4556 57.3092C68.7592 57.1837 69.0351 56.9996 69.2675 56.7675C69.4999 56.5354 69.6844 56.2598 69.8103 55.9564C69.9362 55.653 70.0012 55.3278 70.0014 54.9993C70.0016 54.6708 69.9372 54.3455 69.8117 54.0419C69.6862 53.7383 69.5021 53.4624 69.27 53.23L65 48.965V33.535L77.8 46.335C78.4972 47.0314 79.0504 47.8583 79.4279 48.7686C79.8054 49.6788 79.9998 50.6546 80 51.64V87.5C80 88.163 80.2634 88.7989 80.7322 89.2678C81.2011 89.7366 81.837 90 82.5 90C83.163 90 83.7989 89.7366 84.2678 89.2678C84.7366 88.7989 85 88.163 85 87.5V51.64C84.9993 48.3263 83.6828 45.1485 81.34 42.805L65 26.465V17.5C65 15.5109 64.2098 13.6032 62.8033 12.1967C61.3968 10.7902 59.4891 10 57.5 10H22.5ZM60 27.5V43.965L54.27 38.23C51.375 35.34 48.5 34.345 45.745 35.015C45.2038 35.1486 44.679 35.3414 44.18 35.59C41.945 34.9426 39.59 34.8238 37.3011 35.2431C35.0123 35.6624 32.8524 36.6083 30.992 38.006C29.1316 39.4037 27.6218 41.2149 26.5819 43.2965C25.5419 45.3781 25.0004 47.6731 25 50C24.9998 52.8997 25.8401 55.7374 27.4191 58.1694C28.9982 60.6015 31.2484 62.5237 33.8973 63.7035C36.5461 64.8832 39.4802 65.2699 42.3443 64.8167C45.2084 64.3636 47.8797 63.0899 50.035 61.15C50.12 64.04 50.41 67.2 51.4 69.915C52.14 71.95 53.32 73.895 55.22 75.315L55.25 75.345C53.7275 75.8238 52.3974 76.7759 51.4532 78.0627C50.509 79.3495 49.9999 80.9039 50 82.5V85H30V82.5C30 80.5109 29.2098 78.6032 27.8033 77.1967C26.3968 75.7902 24.4891 75 22.5 75H20V25H22.5C24.4891 25 26.3968 24.2098 27.8033 22.8033C29.2098 21.3968 30 19.4891 30 17.5V15H50V17.5C50 19.4891 50.7902 21.3968 52.1967 22.8033C53.6032 24.2098 55.5109 25 57.5 25H60V27.5ZM60 82.5V82.545C59.9882 83.2002 59.7196 83.8246 59.252 84.2838C58.7845 84.7429 58.1553 85.0001 57.5 85H55V82.5C55 81.837 55.2634 81.2011 55.7322 80.7322C56.2011 80.2634 56.837 80 57.5 80H60V82.5ZM30 50C30 47.4569 30.969 45.0094 32.7096 43.1554C34.4503 41.3014 36.832 40.1802 39.37 40.02C38.75 41.17 38.435 42.57 38.675 44.185C39.03 46.595 40.565 49.1 43.23 51.765L47.765 56.3C46.4631 57.9043 44.6962 59.066 42.7073 59.6254C40.7183 60.1847 38.6049 60.1143 36.6576 59.4237C34.7104 58.7332 33.0248 57.4564 31.8326 55.7689C30.6404 54.0814 30.0002 52.0661 30 50ZM25 15V17.5C25 18.163 24.7366 18.7989 24.2678 19.2678C23.7989 19.7366 23.163 20 22.5 20H20V17.5C20 16.837 20.2634 16.2011 20.7322 15.7322C21.2011 15.2634 21.837 15 22.5 15H25ZM20 80H22.5C23.163 80 23.7989 80.2634 24.2678 80.7322C24.7366 81.2011 25 81.837 25 82.5V85H22.5C21.837 85 21.2011 84.7366 20.7322 84.2678C20.2634 83.7989 20 83.163 20 82.5V80ZM60 20H57.5C56.837 20 56.2011 19.7366 55.7322 19.2678C55.2634 18.7989 55 18.163 55 17.5V15H57.5C58.163 15 58.7989 15.2634 59.2678 15.7322C59.7366 16.2011 60 16.837 60 17.5V20Z" fill="#2E62DC"/>
</svg>
