<svg width="30" height="20" viewBox="0 0 30 20" fill="none" xmlns="http://www.w3.org/2000/svg">
<g clip-path="url(#clip0_25_144)">
<path d="M29.3739 3.1242C29.2031 2.51923 28.8683 1.96753 28.4029 1.52432C27.9375 1.08111 27.3579 0.761928 26.7221 0.598726C24.3817 1.21487e-07 15 0 15 0C15 0 5.6183 -1.21487e-07 3.2779 0.595541C2.64181 0.758213 2.06191 1.07721 1.59645 1.52051C1.13098 1.9638 0.796337 2.51578 0.626116 3.12102C-1.27724e-07 5.35032 0 10 0 10C0 10 -1.27724e-07 14.6497 0.626116 16.8758C0.970982 18.1051 1.98884 19.0732 3.2779 19.4013C5.6183 20 15 20 15 20C15 20 24.3817 20 26.7221 19.4013C28.0145 19.0732 29.029 18.1051 29.3739 16.8758C30 14.6497 30 10 30 10C30 10 30 5.35032 29.3739 3.1242ZM12.0201 14.2675L12.0201 5.73248L19.7879 9.96815L12.0201 14.2675Z" fill="#FFFAFA"/>
</g>
<defs>
<clipPath id="clip0_25_144">
<rect width="30" height="20" fill="white"/>
</clipPath>
</defs>
</svg>
